# xmcd CD database file
#
# Track frame offsets:
#	150
#	17067
#	43062
#	59065
#	79555
#	95477
#	113035
#	130560
#	160267
#	193117
#
# Disc length: 2955 seconds
#
# Revision: 0
# Processed by: cddbd v1.5PL3 Copyright (c) Steve Scherf et al.
# Submitted via: CDex 1.51
#
DISCID=7e0b890a
DTITLE=OST - ルパン三世　オリジナル・サウンドトラック　総集編
DYEAR=1994
DGENRE=Anime
TTITLE0=ルパン三世のテーマ〜五人衆登場
TTITLE1=次元とリンダ〜トルネード（次元大介のテーマ）　〜次元とルパンの対決
TTITLE2=斬鉄剣（石川五右エ門のテーマ）　〜斬鉄剣の弱点を発見
TTITLE3=ルパン、銭形とらわる〜デンジャラス・ゾーン〜ルパン、銭形脱出
TTITLE4=ラヴ・スコール（峰不二子のテーマ）
TTITLE5=トロピカル・ウェーヴ〜ルパンの弱点は？！
TTITLE6=銭形警部登場〜ルパン三世'79
TTITLE7=ルパン、五右ェ門の対決〜Toward The Patrol Line〜和解
TTITLE8=ラヴ・イズ・エヴリシング〜ルパンと不二子　〜ルパン三世・愛のテーマ
TTITLE9=ルパン、銭形の対決〜ルパン三世'80
EXTD=YEAR: 1994
EXTT0=
EXTT1=
EXTT2=
EXTT3=
EXTT4=
EXTT5=
EXTT6=
EXTT7=
EXTT8=
EXTT9=
PLAYORDER=
